<svg width="165" height="10" viewBox="0 0 165 10" fill="none" xmlns="http://www.w3.org/2000/svg">
<path d="M3.23146 0.794037V7.58887H2.20295V1.82255H2.16314L0.537421 2.88424V1.90218L2.23281 0.794037H3.23146ZM5.16242 7.58887V0.794037H6.18761V3.74687H9.57508V0.794037H10.6036V7.58887H9.57508V4.62608H6.18761V7.58887H5.16242Z" fill="#5D667B"/>
<path d="M19.6535 7.58887V6.84568L21.9528 4.46351C22.1983 4.20472 22.4007 3.97801 22.5599 3.78336C22.7214 3.58651 22.8419 3.39961 22.9216 3.22266C23.0012 3.04571 23.041 2.8577 23.041 2.65863C23.041 2.43302 22.9879 2.23838 22.8818 2.0747C22.7756 1.90881 22.6307 1.78163 22.4471 1.69316C22.2635 1.60247 22.0567 1.55713 21.8267 1.55713C21.5834 1.55713 21.3711 1.60689 21.1897 1.70643C21.0083 1.80596 20.869 1.94642 20.7716 2.12779C20.6743 2.30916 20.6257 2.5215 20.6257 2.7648H19.6469C19.6469 2.35119 19.742 1.98955 19.9322 1.67989C20.1225 1.37023 20.3835 1.13024 20.7152 0.959926C21.047 0.787401 21.4241 0.701139 21.8466 0.701139C22.2735 0.701139 22.6495 0.786295 22.9746 0.956608C23.302 1.12471 23.5575 1.35474 23.7411 1.64671C23.9246 1.93646 24.0164 2.26382 24.0164 2.62877C24.0164 2.88093 23.9689 3.12755 23.8738 3.36864C23.7809 3.60973 23.6183 3.87847 23.3861 4.17486C23.1538 4.46904 22.8309 4.82626 22.4173 5.24651L21.0669 6.65989V6.70965H24.1259V7.58887H19.6535ZM25.0947 6.26175V5.4323L28.031 0.794037H28.6846V2.01498H28.2698L26.1697 5.33941V5.39249H30.1942V6.26175H25.0947ZM28.3163 7.58887V6.0096L28.3229 5.63137V0.794037H29.295V7.58887H28.3163ZM31.4433 7.58887V0.794037H32.4685V3.74687H35.856V0.794037H36.8845V7.58887H35.856V4.62608H32.4685V7.58887H31.4433Z" fill="#5D667B"/>
<rect x="44.9999" y="0.588867" width="14.3847" height="8.21983" rx="4.10992" fill="#E2ECFE"/>
<path d="M46.5749 7.19873L49.541 1.33288V1.28311H46.1104V0.4039H50.6026V1.31297L47.6465 7.19873H46.5749ZM54.049 7.19873H51.8493V0.4039H54.1187C54.7844 0.4039 55.3562 0.539929 55.834 0.811988C56.3117 1.08183 56.6778 1.47002 56.9322 1.97653C57.1887 2.48084 57.317 3.08578 57.317 3.79136C57.317 4.49916 57.1876 5.10742 56.9288 5.61615C56.6723 6.12487 56.3007 6.51637 55.8141 6.79064C55.3275 7.0627 54.7391 7.19873 54.049 7.19873ZM52.8745 6.30293H53.9926C54.5102 6.30293 54.9404 6.20561 55.2832 6.01096C55.6261 5.81411 55.8826 5.52988 56.0529 5.15829C56.2233 4.78449 56.3084 4.32884 56.3084 3.79136C56.3084 3.2583 56.2233 2.80598 56.0529 2.43439C55.8848 2.06279 55.6338 1.78078 55.2998 1.58835C54.9658 1.39592 54.5511 1.2997 54.0556 1.2997H52.8745V6.30293Z" fill="#0141CF"/>
<path d="M69.474 1.09294V7.58887H68.4907V2.07621H68.4527L66.8985 3.0912V2.15233L68.5193 1.09294H69.474ZM71.32 1.09294H72.5095L74.5775 6.14251H74.6536L76.7217 1.09294H77.9111V7.58887H76.9786V2.8882H76.9183L75.0025 7.57935H74.2286L72.3128 2.88503H72.2525V7.58887H71.32V1.09294Z" fill="#5D667B"/>
<path d="M89.271 7.67768C88.8354 7.67768 88.4463 7.60261 88.1038 7.45248C87.7633 7.30234 87.4937 7.09406 87.295 6.82763C87.0983 6.55908 86.9926 6.24824 86.9778 5.8951H87.9737C87.9864 6.08753 88.0509 6.25458 88.1672 6.39626C88.2856 6.53582 88.44 6.64366 88.6303 6.71978C88.8206 6.79591 89.0321 6.83397 89.2647 6.83397C89.5205 6.83397 89.7468 6.78956 89.9434 6.70075C90.1422 6.61194 90.2976 6.48824 90.4097 6.32965C90.5218 6.16894 90.5778 5.98392 90.5778 5.77457C90.5778 5.55678 90.5218 5.36541 90.4097 5.20047C90.2998 5.03342 90.138 4.90232 89.9244 4.80716C89.713 4.71201 89.4571 4.66443 89.1568 4.66443H88.6081V3.86513H89.1568C89.3979 3.86513 89.6093 3.82178 89.7912 3.73508C89.9752 3.64839 90.119 3.52786 90.2226 3.37349C90.3262 3.21702 90.378 3.03411 90.378 2.82476C90.378 2.62388 90.3325 2.44943 90.2416 2.30141C90.1528 2.15128 90.0259 2.03392 89.861 1.94934C89.6982 1.86475 89.5057 1.82246 89.2837 1.82246C89.0722 1.82246 88.8745 1.86158 88.6906 1.93982C88.5087 2.01595 88.3607 2.1259 88.2465 2.26969C88.1323 2.41137 88.071 2.58159 88.0625 2.78036H87.1142C87.1247 2.42934 87.2284 2.12062 87.425 1.85418C87.6238 1.58775 87.886 1.37946 88.2116 1.22933C88.5373 1.0792 88.8989 1.00413 89.2964 1.00413C89.713 1.00413 90.0724 1.08554 90.3748 1.24836C90.6793 1.40907 90.914 1.62369 91.079 1.89224C91.246 2.16079 91.3285 2.45472 91.3264 2.77401C91.3285 3.13772 91.227 3.44644 91.0219 3.70019C90.8189 3.95394 90.5482 4.12416 90.2099 4.21086V4.26161C90.6413 4.32716 90.9754 4.49844 91.2122 4.77545C91.4511 5.05245 91.5695 5.39607 91.5674 5.80629C91.5695 6.16365 91.4702 6.48401 91.2693 6.76736C91.0705 7.05071 90.7988 7.2738 90.4541 7.43662C90.1094 7.59733 89.7151 7.67768 89.271 7.67768ZM92.8552 1.09294H94.0446L96.1127 6.14251H96.1888L98.2568 1.09294H99.4463V7.58887H98.5138V2.8882H98.4535L96.5377 7.57935H95.7638L93.848 2.88503H93.7877V7.58887H92.8552V1.09294Z" fill="#5D667B"/>
<path d="M110.277 7.67768C109.988 7.67345 109.702 7.62059 109.421 7.51909C109.142 7.41759 108.888 7.24842 108.66 7.01159C108.431 6.77476 108.248 6.45652 108.111 6.05687C107.976 5.65722 107.908 5.15818 107.908 4.55976C107.908 3.99306 107.964 3.48979 108.076 3.04996C108.19 2.61014 108.354 2.23903 108.568 1.93665C108.781 1.63215 109.039 1.40061 109.342 1.24202C109.644 1.08342 109.983 1.00413 110.36 1.00413C110.747 1.00413 111.09 1.08025 111.391 1.2325C111.691 1.38475 111.934 1.59515 112.12 1.8637C112.308 2.13225 112.428 2.4378 112.479 2.78036H111.511C111.446 2.50969 111.316 2.28872 111.121 2.11744C110.927 1.94616 110.673 1.86052 110.36 1.86052C109.884 1.86052 109.513 2.06775 109.247 2.48221C108.982 2.89666 108.849 3.47288 108.847 4.21086H108.894C109.007 4.02689 109.144 3.87041 109.307 3.74143C109.472 3.61032 109.656 3.50988 109.859 3.4401C110.064 3.36821 110.279 3.33226 110.506 3.33226C110.882 3.33226 111.223 3.42424 111.527 3.60821C111.834 3.79006 112.078 4.04169 112.26 4.36311C112.442 4.68452 112.533 5.05245 112.533 5.46691C112.533 5.88136 112.438 6.25669 112.25 6.59291C112.064 6.92912 111.802 7.19556 111.464 7.39221C111.125 7.58675 110.73 7.68191 110.277 7.67768ZM110.274 6.853C110.524 6.853 110.747 6.79168 110.943 6.66903C111.14 6.54639 111.296 6.38145 111.41 6.17423C111.524 5.967 111.581 5.73546 111.581 5.47959C111.581 5.23008 111.525 5.00276 111.413 4.79765C111.303 4.59254 111.151 4.42971 110.956 4.30919C110.764 4.18866 110.544 4.12839 110.296 4.12839C110.108 4.12839 109.934 4.16434 109.773 4.23623C109.614 4.30813 109.475 4.40751 109.354 4.53439C109.234 4.66126 109.139 4.80716 109.069 4.9721C109.001 5.13492 108.967 5.30726 108.967 5.48911C108.967 5.73228 109.023 5.95748 109.135 6.16471C109.25 6.37194 109.405 6.53899 109.602 6.66586C109.801 6.79062 110.025 6.853 110.274 6.853ZM113.777 1.09294H114.966L117.034 6.14251H117.11L119.178 1.09294H120.368V7.58887H119.435V2.8882H119.375L117.459 7.57935H116.685L114.769 2.88503H114.709V7.58887H113.777V1.09294Z" fill="#5D667B"/>
<path d="M131.616 0.794037V7.58887H130.588V1.82255H130.548L128.922 2.88424V1.90218L130.618 0.794037H131.616ZM133.023 0.794037H134.187L135.962 3.8829H136.035L137.81 0.794037H138.975L136.51 4.92137V7.58887H135.488V4.92137L133.023 0.794037Z" fill="#5D667B"/>
<path d="M147.705 7.58887H146.617L149.062 0.794037H150.247L152.692 7.58887H151.604L149.683 2.02825H149.629L147.705 7.58887ZM147.888 4.928H151.418V5.79063H147.888V4.928ZM153.673 7.58887V0.794037H154.698V6.70634H157.777V7.58887H153.673ZM158.947 7.58887V0.794037H159.972V6.70634H163.051V7.58887H158.947Z" fill="#5D667B"/>
</svg>
