<svg width="84" height="28" viewBox="0 0 84 28" fill="none" xmlns="http://www.w3.org/2000/svg">
<rect width="84" height="28" rx="4" fill="#EBF9F4"/>
<path d="M15.5 10L21 18H10L15.5 10Z" fill="#14B079"/>
<path d="M30.174 19.5V18.2273L34.1115 14.1477C34.532 13.7045 34.8786 13.3163 35.1513 12.983C35.4278 12.6458 35.6342 12.3258 35.7706 12.0227C35.907 11.7197 35.9751 11.3977 35.9751 11.0568C35.9751 10.6705 35.8842 10.3371 35.7024 10.0568C35.5206 9.77273 35.2725 9.55492 34.9581 9.40341C34.6437 9.24811 34.2895 9.17045 33.8956 9.17045C33.4789 9.17045 33.1153 9.25568 32.8047 9.42614C32.4941 9.59659 32.2554 9.83712 32.0888 10.1477C31.9221 10.4583 31.8388 10.822 31.8388 11.2386H30.1626C30.1626 10.5303 30.3255 9.91098 30.6513 9.38068C30.977 8.85038 31.424 8.43939 31.9922 8.14773C32.5604 7.85227 33.2062 7.70455 33.9297 7.70455C34.6607 7.70455 35.3047 7.85038 35.8615 8.14205C36.4221 8.42992 36.8596 8.82386 37.174 9.32386C37.4884 9.82008 37.6456 10.3807 37.6456 11.0057C37.6456 11.4375 37.5642 11.8598 37.4013 12.2727C37.2422 12.6856 36.9638 13.1458 36.5661 13.6534C36.1683 14.1572 35.6153 14.7689 34.907 15.4886L32.5945 17.9091V17.9943H37.8331V19.5H30.174ZM41.1286 19.608C40.8179 19.608 40.5509 19.4981 40.3274 19.2784C40.1039 19.0549 39.9922 18.786 39.9922 18.4716C39.9922 18.161 40.1039 17.8958 40.3274 17.6761C40.5509 17.4527 40.8179 17.3409 41.1286 17.3409C41.4392 17.3409 41.7062 17.4527 41.9297 17.6761C42.1532 17.8958 42.2649 18.161 42.2649 18.4716C42.2649 18.6799 42.2119 18.8712 42.1058 19.0455C42.0036 19.2159 41.8672 19.3523 41.6967 19.4545C41.5263 19.5568 41.3369 19.608 41.1286 19.608ZM48.1712 19.6591C47.459 19.6591 46.8189 19.5227 46.2507 19.25C45.6863 18.9735 45.2356 18.5947 44.8984 18.1136C44.5613 17.6326 44.3814 17.0833 44.3587 16.4659H46.0632C46.1049 16.9659 46.3265 17.3769 46.728 17.6989C47.1295 18.0208 47.6106 18.1818 48.1712 18.1818C48.6181 18.1818 49.014 18.0795 49.3587 17.875C49.7071 17.6667 49.9799 17.3807 50.1768 17.017C50.3776 16.6534 50.478 16.2386 50.478 15.7727C50.478 15.2992 50.3757 14.8769 50.1712 14.5057C49.9666 14.1345 49.6844 13.8428 49.3246 13.6307C48.9685 13.4186 48.5594 13.3106 48.0973 13.3068C47.745 13.3068 47.3909 13.3674 47.0348 13.4886C46.6787 13.6098 46.3909 13.7689 46.1712 13.9659L44.5632 13.7273L45.2166 7.86364H51.6143V9.36932H46.6768L46.3075 12.625H46.3757C46.603 12.4053 46.9041 12.2216 47.2791 12.0739C47.6579 11.9261 48.0632 11.8523 48.495 11.8523C49.2034 11.8523 49.834 12.0208 50.3871 12.358C50.9439 12.6951 51.3814 13.1553 51.6996 13.7386C52.0215 14.3182 52.1806 14.9848 52.1768 15.7386C52.1806 16.4924 52.0102 17.1648 51.6655 17.7557C51.3246 18.3466 50.8511 18.8125 50.245 19.1534C49.6428 19.4905 48.9515 19.6591 48.1712 19.6591ZM58.6669 7.86364V19.5H56.9055V9.625H56.8374L54.0533 11.4432V9.76136L56.9567 7.86364H58.6669ZM67.8885 17.3182V16.7045C67.8885 16.2652 67.9794 15.8636 68.1612 15.5C68.3468 15.1326 68.6158 14.839 68.968 14.6193C69.3241 14.3958 69.754 14.2841 70.2578 14.2841C70.773 14.2841 71.2048 14.3939 71.5533 14.6136C71.9018 14.8333 72.165 15.1269 72.343 15.4943C72.5249 15.8617 72.6158 16.2652 72.6158 16.7045V17.3182C72.6158 17.7576 72.5249 18.161 72.343 18.5284C72.1612 18.892 71.8942 19.1856 71.5419 19.4091C71.1934 19.6288 70.7654 19.7386 70.2578 19.7386C69.7464 19.7386 69.3146 19.6288 68.9624 19.4091C68.6101 19.1856 68.343 18.892 68.1612 18.5284C67.9794 18.161 67.8885 17.7576 67.8885 17.3182ZM69.2124 16.7045V17.3182C69.2124 17.6439 69.29 17.9394 69.4453 18.2045C69.6006 18.4697 69.8714 18.6023 70.2578 18.6023C70.6404 18.6023 70.9074 18.4697 71.0589 18.2045C71.2105 17.9394 71.2862 17.6439 71.2862 17.3182V16.7045C71.2862 16.3788 71.2124 16.0833 71.0646 15.8182C70.9207 15.553 70.6518 15.4205 70.2578 15.4205C69.879 15.4205 69.6101 15.553 69.451 15.8182C69.2919 16.0833 69.2124 16.3788 69.2124 16.7045ZM62.0362 10.6591V10.0455C62.0362 9.60606 62.1271 9.20265 62.3089 8.83523C62.4946 8.4678 62.7635 8.17424 63.1158 7.95455C63.4718 7.73485 63.9018 7.625 64.4055 7.625C64.9207 7.625 65.3525 7.73485 65.701 7.95455C66.0495 8.17424 66.3127 8.4678 66.4908 8.83523C66.6688 9.20265 66.7578 9.60606 66.7578 10.0455V10.6591C66.7578 11.0985 66.6669 11.5019 66.4851 11.8693C66.3071 12.233 66.0419 12.5265 65.6896 12.75C65.3411 12.9697 64.9131 13.0795 64.4055 13.0795C63.8904 13.0795 63.4567 12.9697 63.1044 12.75C62.7559 12.5265 62.4908 12.233 62.3089 11.8693C62.1271 11.5019 62.0362 11.0985 62.0362 10.6591ZM63.3658 10.0455V10.6591C63.3658 10.9848 63.4415 11.2803 63.593 11.5455C63.7483 11.8106 64.0192 11.9432 64.4055 11.9432C64.7843 11.9432 65.0495 11.8106 65.201 11.5455C65.3563 11.2803 65.4339 10.9848 65.4339 10.6591V10.0455C65.4339 9.7197 65.3601 9.42424 65.2124 9.15909C65.0646 8.89394 64.7957 8.76136 64.4055 8.76136C64.0268 8.76136 63.7578 8.89394 63.5987 9.15909C63.4434 9.42424 63.3658 9.7197 63.3658 10.0455ZM62.576 19.5L70.576 7.86364H71.9339L63.9339 19.5H62.576Z" fill="#14B079"/>
</svg>
