<svg width="32" height="32" viewBox="0 0 32 32" fill="none" xmlns="http://www.w3.org/2000/svg">
<rect x="0.59613" y="0.770996" width="30.7905" height="30.7905" rx="15.3952" fill="#0082FF"/>
<path d="M11.0929 18.4126V16.4532H13.0523V18.4126H11.0929ZM20.8899 11.059C20.8883 10.6703 20.7328 10.298 20.4574 10.0237C20.182 9.74935 19.8091 9.59533 19.4203 9.59534H9.54792C9.15817 9.59534 8.78438 9.75016 8.50879 10.0258C8.2332 10.3014 8.07837 10.6751 8.07837 11.0649V19.8822C8.07837 20.5317 8.33641 21.1547 8.79574 21.614C9.25506 22.0734 9.87803 22.3314 10.5276 22.3314H21.4552C22.1047 22.3314 22.7277 22.0734 23.187 21.614C23.6464 21.1547 23.9044 20.5317 23.9044 19.8822V14.004C23.9044 13.6142 23.7496 13.2404 23.474 12.9648C23.1984 12.6893 22.8246 12.5344 22.4349 12.5344H21.8696V19.6176C21.8696 19.7476 21.818 19.8722 21.7261 19.964C21.6342 20.0559 21.5096 20.1075 21.3797 20.1075C21.2498 20.1075 21.1252 20.0559 21.0333 19.964C20.9415 19.8722 20.8899 19.7476 20.8899 19.6176V11.059ZM10.1132 13.0243C10.1132 12.8944 10.1648 12.7698 10.2567 12.6779C10.3485 12.586 10.4731 12.5344 10.603 12.5344H18.4406C18.5705 12.5344 18.6951 12.586 18.787 12.6779C18.8789 12.7698 18.9305 12.8944 18.9305 13.0243C18.9305 13.1542 18.8789 13.2788 18.787 13.3707C18.6951 13.4625 18.5705 13.5141 18.4406 13.5141H10.603C10.4731 13.5141 10.3485 13.4625 10.2567 13.3707C10.1648 13.2788 10.1132 13.1542 10.1132 13.0243ZM15.5015 15.4735H18.4406C18.5705 15.4735 18.6951 15.5251 18.787 15.617C18.8789 15.7089 18.9305 15.8335 18.9305 15.9634C18.9305 16.0933 18.8789 16.2179 18.787 16.3097C18.6951 16.4016 18.5705 16.4532 18.4406 16.4532H15.5015C15.3716 16.4532 15.247 16.4016 15.1552 16.3097C15.0633 16.2179 15.0117 16.0933 15.0117 15.9634C15.0117 15.8335 15.0633 15.7089 15.1552 15.617C15.247 15.5251 15.3716 15.4735 15.5015 15.4735ZM15.0117 18.9025C15.0117 18.7725 15.0633 18.648 15.1552 18.5561C15.247 18.4642 15.3716 18.4126 15.5015 18.4126H18.4406C18.5705 18.4126 18.6951 18.4642 18.787 18.5561C18.8789 18.648 18.9305 18.7725 18.9305 18.9025C18.9305 19.0324 18.8789 19.157 18.787 19.2488C18.6951 19.3407 18.5705 19.3923 18.4406 19.3923H15.5015C15.3716 19.3923 15.247 19.3407 15.1552 19.2488C15.0633 19.157 15.0117 19.0324 15.0117 18.9025ZM10.603 15.4735H13.5421C13.6721 15.4735 13.7967 15.5251 13.8885 15.617C13.9804 15.7089 14.032 15.8335 14.032 15.9634V18.9025C14.032 19.0324 13.9804 19.157 13.8885 19.2488C13.7967 19.3407 13.6721 19.3923 13.5421 19.3923H10.603C10.4731 19.3923 10.3485 19.3407 10.2567 19.2488C10.1648 19.157 10.1132 19.0324 10.1132 18.9025V15.9634C10.1132 15.8335 10.1648 15.7089 10.2567 15.617C10.3485 15.5251 10.4731 15.4735 10.603 15.4735Z" fill="white"/>
</svg>
